PathFileType	4	(X/Y/Z)	C:/Users/opensim2020/Desktop/walking_exp_matlab/subject06_walking15_straight_02.trc	
DataRate	CameraRate	NumFrames	NumMarkers	Units	OrigDataRate	OrigDataStartFrame	OrigNumFrames	
100.00	100.00	6	47	mm	100.00	1628	218	
Frame#	Time	LFHD			RFHD			LBHD			RBHD			C7			T10			CLAV			STRN			RBAK			LSHO			LUPA			LELB			LFRM			LWRA			LWRB			LFIN			RSHO			RUPA			RELB			RFRM			RWRA			RWRB			RFIN			LASI			RASI			LPSI			RPSI			LTHI			LKNE			LTIB			LANK			LHEE			LTOE			RTHI			RKNE			RTIB			RANK			RHEE			RTOE			*39			*40			*41			*42			*43			*44			*45			*46			
		X1	Y1	Z1	X2	Y2	Z2	X3	Y3	Z3	X4	Y4	Z4	X5	Y5	Z5	X6	Y6	Z6	X7	Y7	Z7	X8	Y8	Z8	X9	Y9	Z9	X10	Y10	Z10	X11	Y11	Z11	X12	Y12	Z12	X13	Y13	Z13	X14	Y14	Z14	X15	Y15	Z15	X16	Y16	Z16	X17	Y17	Z17	X18	Y18	Z18	X19	Y19	Z19	X20	Y20	Z20	X21	Y21	Z21	X22	Y22	Z22	X23	Y23	Z23	X24	Y24	Z24	X25	Y25	Z25	X26	Y26	Z26	X27	Y27	Z27	X28	Y28	Z28	X29	Y29	Z29	X30	Y30	Z30	X31	Y31	Z31	X32	Y32	Z32	X33	Y33	Z33	X34	Y34	Z34	X35	Y35	Z35	X36	Y36	Z36	X37	Y37	Z37	X38	Y38	Z38	X39	Y39	Z39	X40	Y40	Z40	X41	Y41	Z41	X42	Y42	Z42	X43	Y43	Z43	X44	Y44	Z44	X45	Y45	Z45	X46	Y46	Z46	X47	Y47	Z47	

137	1.360	-933.37567	-35.63220	1652.43677	-1065.48230	-40.30551	1642.19543	-937.93054	95.52229	1593.33887	-1066.98035	88.91659	1588.36182	-988.39777	88.34147	1432.85583	-989.13086	101.72501	1102.88416	-991.13959	-26.81776	1362.92407	-982.60760	-77.36565	1190.40295	-1055.65527	152.56464	1257.34399	-828.86987	25.95748	1395.63550	-755.93701	-10.23472	1197.66602	-744.51154	-35.51276	1087.54590	-737.41028	-142.62997	982.95587	-787.95807	-260.99356	950.36603	-763.83929	-222.15305	896.43475	-767.05444	-307.82977	869.73138	-1151.30908	28.72868	1389.53210	-1232.67920	93.81519	1198.11072	-1242.08435	100.82564	1074.69482	-1257.77478	107.77874	954.03149	-1223.93811	76.94878	805.16553	-1266.25989	129.37640	817.60388	-1266.44824	110.15565	735.08496	-893.88397	-79.38445	939.43884	-1112.03333	-82.71307	968.17639	-919.35181	76.37447	969.14545	-1087.32813	70.55968	984.68158	-851.45074	21.25302	619.89557	-871.52673	45.15149	457.17703	-876.75079	243.02017	292.58435	-912.79895	364.88177	169.10847	-958.45660	401.01508	189.03105	-927.16162	297.70230	39.14122	-1171.76782	-87.95203	639.66656	-1140.78076	-118.99166	519.16467	-1141.04126	-115.48463	251.28401	-1092.78430	-122.33487	65.86656	-1050.04150	-82.78867	40.89075	-1076.79834	-276.28940	37.16175	-996.30518	63.53080	1687.64941																					 
138	1.370	-935.06342	-46.46413	1654.02734	-1066.70190	-51.05007	1643.38416	-939.06195	84.87198	1594.75549	-1068.62708	78.68058	1589.75671	-989.44037	77.51358	1434.19189	-990.19519	90.87739	1104.44434	-991.93469	-37.77097	1364.40881	-983.47467	-88.49909	1191.84473	-1057.00757	141.39069	1258.87109	-829.98846	15.43398	1397.25537	-757.30969	-19.47896	1199.18408	-746.71918	-42.00988	1088.00964	-739.33820	-146.91476	980.81396	-789.44183	-264.89340	944.96704	-765.62201	-224.32355	892.37225	-768.81061	-309.50647	862.93414	-1152.05396	17.61209	1391.22229	-1233.70056	81.42062	1199.49609	-1243.10254	87.74090	1076.05811	-1258.80066	93.08269	955.33026	-1225.18408	59.54399	807.05463	-1267.06750	112.58315	818.66064	-1267.47278	92.06240	736.43127	-895.20465	-90.06287	940.89954	-1113.34741	-93.31195	969.07227	-920.80109	65.61585	970.03839	-1088.55457	59.63541	986.05975	-851.90253	4.83002	619.75623	-871.50726	24.21209	456.49826	-877.03265	223.86855	297.30026	-912.12726	349.31137	177.50076	-957.82874	384.09372	199.74434	-926.93561	291.39172	43.17247	-1173.22058	-94.38130	639.41199	-1142.06641	-125.17386	518.74463	-1140.84863	-118.26981	251.38028	-1092.44006	-123.03853	65.96122	-1049.87549	-83.05796	41.19786	-1076.55688	-276.91861	36.17496	-997.57184	52.85279	1688.99280																					 
139	1.380	-936.09540	-57.06080	1655.26282	-1067.67529	-61.71826	1644.67615	-940.14648	74.18614	1595.90710	-1069.33459	67.50554	1590.75256	-990.44879	66.59509	1435.19873	-991.41217	80.09010	1105.71240	-992.74414	-48.74110	1365.65747	-984.42914	-99.43935	1193.02271	-1058.53650	130.25090	1260.05664	-831.00800	4.76411	1398.48035	-758.52142	-28.55228	1200.07190	-748.56085	-47.99456	1088.12756	-740.98822	-150.88493	978.20013	-790.82556	-268.46930	939.28912	-766.62268	-226.37469	888.01074	-770.41772	-310.80490	855.89941	-1152.90210	6.34535	1392.71118	-1234.84412	69.01839	1200.69958	-1244.29565	74.74616	1077.26392	-1259.89648	78.36145	956.45544	-1226.54822	41.91175	808.93427	-1267.80652	95.68228	819.42749	-1268.45862	73.55515	737.66876	-896.23523	-100.45309	942.04761	-1114.52124	-103.89346	969.66431	-922.17676	55.22083	970.78174	-1089.87341	48.90483	987.16602	-852.23016	-11.21396	619.61511	-871.49225	3.27539	456.06683	-876.88855	204.08455	301.67374	-911.86169	332.66669	185.83507	-957.35779	365.94321	210.39378	-926.87671	282.66455	48.35265	-1174.28772	-101.03014	639.31512	-1143.28003	-131.27043	518.35449	-1140.89172	-120.96499	251.24879	-1092.11633	-123.54696	65.98182	-1049.76355	-83.24371	41.37312	-1076.46021	-277.32047	35.41982	-998.65240	42.29273	1690.11902																					 
140	1.390	-936.92078	-67.56800	1656.44263	-1068.55322	-72.41040	1645.97742	-941.21606	63.52709	1596.79822	-1070.40295	56.67416	1591.82397	-991.55737	55.83401	1436.23767	-992.68817	69.36996	1106.74585	-993.65039	-59.59520	1366.75293	-985.35101	-110.16624	1194.01025	-1060.24426	119.29002	1261.05750	-831.86206	-6.06205	1399.35352	-759.72784	-37.19100	1200.29883	-750.58044	-54.74261	1087.81079	-742.45508	-154.76973	975.32153	-792.08252	-271.72394	933.27112	-767.04669	-228.36275	883.28510	-771.90839	-311.84503	848.56799	-1153.85364	-4.90188	1393.92163	-1236.18872	56.59967	1201.66895	-1245.67334	61.81176	1078.20056	-1261.08972	63.68328	957.35980	-1227.90784	24.09945	810.71667	-1268.55249	78.64857	819.99469	-1269.67065	54.94309	738.86523	-897.08569	-110.64220	942.97479	-1115.58081	-114.29565	970.11194	-923.47668	45.04240	971.33179	-1091.14038	38.52331	988.08539	-852.53473	-27.13373	619.59747	-871.44147	-17.64437	455.93506	-876.88617	183.38641	304.91748	-911.76465	315.17548	193.87424	-957.40674	347.13779	219.97559	-925.95874	271.76776	54.28458	-1175.17224	-108.02788	639.47687	-1144.30298	-137.38280	518.17871	-1140.96741	-123.36343	251.07402	-1091.85547	-124.00823	65.99170	-1049.66309	-83.39858	41.51028	-1076.27197	-277.57861	34.96039	-999.53131	31.80594	1691.26648																					 
141	1.400	-937.55524	-78.03262	1657.60815	-1069.23572	-83.17884	1647.32629	-942.20892	52.95896	1597.75708	-1071.36670	45.88232	1592.92041	-992.57843	44.96483	1437.39014	-993.89734	58.81091	1107.64099	-994.54681	-70.40664	1367.78003	-986.29559	-120.67630	1194.83008	-1061.86169	108.42717	1261.88757	-832.60272	-16.91648	1399.93250	-760.98334	-45.43486	1199.96912	-752.25549	-61.20612	1087.27576	-743.64398	-158.59656	972.18866	-793.16437	-274.65399	926.85150	-767.85492	-229.89598	878.40015	-773.26501	-312.53909	841.09424	-1154.93262	-16.24625	1394.99597	-1237.61377	44.27916	1202.38977	-1247.27673	48.89092	1078.78467	-1262.41174	48.86611	958.01910	-1229.63477	5.81966	812.68774	-1269.32214	61.49297	820.40271	-1270.46191	36.23547	739.69757	-897.85431	-120.62230	943.73511	-1116.56714	-124.67046	970.59180	-924.64307	35.03891	971.85590	-1092.27979	28.30533	988.85040	-852.77893	-42.90990	619.78302	-871.33044	-38.48778	456.22229	-876.75305	162.28381	307.77661	-912.21320	297.76590	201.54099	-958.42566	329.08423	227.80145	-924.19678	256.77158	60.35157	-1175.85974	-116.52037	640.20587	-1144.84509	-143.52142	518.13879	-1140.93738	-125.80088	251.03088	-1091.65442	-124.42965	65.99462	-1049.61206	-83.50770	41.65175	-1076.08459	-277.72949	34.66065	-1000.33582	21.26064	1692.35291																					 
142	1.410	-938.15240	-88.57446	1658.60999	-1069.77869	-93.95245	1648.57654	-943.08722	42.34972	1598.68762	-1072.71326	35.47117	1594.18616	-993.54559	34.06233	1438.60681	-995.21472	48.40466	1108.46667	-995.46820	-81.14778	1368.75781	-987.20160	-131.03889	1195.60083	-1063.59595	97.86464	1262.81824	-833.24005	-27.74948	1400.34863	-762.34143	-53.47639	1199.29419	-753.84070	-68.31583	1086.54858	-745.14600	-162.39297	969.00562	-794.15729	-277.20444	920.07239	-768.54962	-231.02910	873.08594	-774.15594	-312.58395	833.26300	-1156.08435	-27.45557	1395.90552	-1239.45850	31.96936	1203.04150	-1248.74573	36.00219	1079.38513	-1263.77319	33.99335	958.58844	-1231.60352	-12.26775	814.75397	-1270.04333	43.95830	820.59839	-1271.35974	17.05696	740.65118	-898.61621	-130.81407	944.69165	-1117.42383	-134.72546	971.19244	-925.59863	25.18720	972.38916	-1093.30652	18.47070	989.63873	-852.92896	-58.50581	620.19525	-871.13110	-59.15942	456.94714	-876.75873	141.32858	310.72647	-913.10791	279.61935	208.36075	-959.71552	311.11990	233.88667	-922.82471	238.38255	66.89088	-1176.04602	-124.67499	640.64081	-1145.07593	-149.51828	518.19226	-1141.11243	-128.69830	251.06740	-1091.54382	-124.84377	66.04578	-1049.58813	-83.58733	41.78193	-1076.07593	-278.15744	34.27897	-1001.02789	10.64396	1693.32764																					 
